G04 EAGLE Gerber X2 export*
%TF.Part,Single*%
%TF.FileFunction,Copper,L1,Top,Mixed*%
%TF.FilePolarity,Positive*%
%TF.GenerationSoftware,Autodesk,EAGLE,8.7.0*%
%TF.CreationDate,2018-04-13T05:44:18Z*%
G75*
%MOMM*%
%FSLAX34Y34*%
%LPD*%
%AMOC8*
5,1,8,0,0,1.08239X$1,22.5*%
G01*
%ADD10R,1.400000X1.000000*%
%ADD11P,2.336880X8X22.500000*%
%ADD12R,1.300000X1.600000*%
%ADD13R,1.016000X1.143000*%
%ADD14R,1.300000X1.500000*%
%ADD15C,1.524000*%
%ADD16R,5.080000X2.540000*%
%ADD17C,0.304800*%
%ADD18C,0.756400*%

G36*
X547898Y10164D02*
X547898Y10164D01*
X547917Y10162D01*
X548019Y10184D01*
X548121Y10200D01*
X548138Y10210D01*
X548158Y10214D01*
X548247Y10267D01*
X548338Y10316D01*
X548352Y10330D01*
X548369Y10340D01*
X548436Y10419D01*
X548508Y10494D01*
X548516Y10512D01*
X548529Y10527D01*
X548568Y10623D01*
X548611Y10717D01*
X548613Y10737D01*
X548621Y10755D01*
X548639Y10922D01*
X548639Y436118D01*
X548636Y436138D01*
X548638Y436157D01*
X548616Y436259D01*
X548600Y436361D01*
X548590Y436378D01*
X548586Y436398D01*
X548533Y436487D01*
X548484Y436578D01*
X548470Y436592D01*
X548460Y436609D01*
X548381Y436676D01*
X548306Y436748D01*
X548288Y436756D01*
X548273Y436769D01*
X548177Y436808D01*
X548083Y436851D01*
X548063Y436853D01*
X548045Y436861D01*
X547878Y436879D01*
X287610Y436879D01*
X287590Y436876D01*
X287571Y436878D01*
X287469Y436856D01*
X287367Y436840D01*
X287350Y436830D01*
X287330Y436826D01*
X287241Y436773D01*
X287150Y436724D01*
X287136Y436710D01*
X287119Y436700D01*
X287052Y436621D01*
X286981Y436546D01*
X286972Y436528D01*
X286959Y436513D01*
X286920Y436417D01*
X286877Y436323D01*
X286875Y436303D01*
X286867Y436285D01*
X286849Y436118D01*
X286849Y427710D01*
X286852Y427690D01*
X286850Y427671D01*
X286872Y427569D01*
X286889Y427467D01*
X286898Y427450D01*
X286902Y427430D01*
X286955Y427341D01*
X287004Y427250D01*
X287018Y427236D01*
X287028Y427219D01*
X287107Y427152D01*
X287182Y427080D01*
X287200Y427072D01*
X287215Y427059D01*
X287311Y427020D01*
X287405Y426977D01*
X287425Y426975D01*
X287443Y426967D01*
X287445Y426967D01*
X314644Y399768D01*
X314718Y399715D01*
X314787Y399655D01*
X314817Y399643D01*
X314844Y399624D01*
X314931Y399597D01*
X315015Y399563D01*
X315056Y399559D01*
X315079Y399552D01*
X315111Y399553D01*
X315182Y399545D01*
X325792Y399545D01*
X326685Y398652D01*
X326685Y381388D01*
X325792Y380495D01*
X311528Y380495D01*
X310635Y381388D01*
X310635Y394838D01*
X310621Y394928D01*
X310613Y395019D01*
X310601Y395049D01*
X310596Y395081D01*
X310553Y395161D01*
X310517Y395245D01*
X310491Y395277D01*
X310480Y395298D01*
X310457Y395320D01*
X310412Y395376D01*
X308984Y396804D01*
X308926Y396846D01*
X308874Y396895D01*
X308827Y396917D01*
X308785Y396948D01*
X308716Y396969D01*
X308651Y396999D01*
X308599Y397005D01*
X308549Y397020D01*
X308478Y397018D01*
X308407Y397026D01*
X308356Y397015D01*
X308304Y397014D01*
X308236Y396989D01*
X308166Y396974D01*
X308122Y396947D01*
X308073Y396929D01*
X308017Y396884D01*
X307955Y396848D01*
X307921Y396808D01*
X307881Y396776D01*
X307842Y396715D01*
X307795Y396661D01*
X307776Y396612D01*
X307748Y396569D01*
X307730Y396499D01*
X307703Y396433D01*
X307695Y396361D01*
X307687Y396330D01*
X307689Y396307D01*
X307685Y396266D01*
X307685Y381388D01*
X306792Y380495D01*
X303470Y380495D01*
X303450Y380492D01*
X303431Y380494D01*
X303329Y380472D01*
X303227Y380456D01*
X303210Y380446D01*
X303190Y380442D01*
X303101Y380389D01*
X303010Y380340D01*
X302996Y380326D01*
X302979Y380316D01*
X302912Y380237D01*
X302840Y380162D01*
X302832Y380144D01*
X302819Y380129D01*
X302780Y380033D01*
X302737Y379939D01*
X302735Y379919D01*
X302727Y379901D01*
X302709Y379734D01*
X302709Y166258D01*
X302720Y166187D01*
X302722Y166116D01*
X302740Y166067D01*
X302748Y166015D01*
X302782Y165952D01*
X302807Y165885D01*
X302839Y165844D01*
X302864Y165798D01*
X302916Y165749D01*
X302960Y165693D01*
X303004Y165664D01*
X303042Y165629D01*
X303107Y165598D01*
X303167Y165560D01*
X303218Y165547D01*
X303265Y165525D01*
X303336Y165517D01*
X303406Y165500D01*
X303458Y165504D01*
X303509Y165498D01*
X303580Y165513D01*
X303651Y165519D01*
X303699Y165539D01*
X303750Y165550D01*
X303811Y165587D01*
X303877Y165615D01*
X303933Y165660D01*
X303961Y165676D01*
X303976Y165694D01*
X304008Y165720D01*
X306608Y168320D01*
X306661Y168394D01*
X306721Y168463D01*
X306733Y168493D01*
X306752Y168520D01*
X306779Y168607D01*
X306813Y168691D01*
X306817Y168732D01*
X306824Y168755D01*
X306823Y168787D01*
X306831Y168858D01*
X306831Y231133D01*
X332747Y257049D01*
X462534Y257049D01*
X462554Y257052D01*
X462573Y257050D01*
X462675Y257072D01*
X462777Y257088D01*
X462794Y257098D01*
X462814Y257102D01*
X462903Y257155D01*
X462994Y257204D01*
X463008Y257218D01*
X463025Y257228D01*
X463092Y257307D01*
X463164Y257382D01*
X463172Y257400D01*
X463185Y257415D01*
X463224Y257511D01*
X463267Y257605D01*
X463269Y257625D01*
X463277Y257643D01*
X463295Y257810D01*
X463295Y267332D01*
X464188Y268225D01*
X516252Y268225D01*
X517145Y267332D01*
X517145Y240668D01*
X516252Y239775D01*
X464188Y239775D01*
X463295Y240668D01*
X463295Y250190D01*
X463292Y250210D01*
X463294Y250229D01*
X463272Y250331D01*
X463256Y250433D01*
X463246Y250450D01*
X463242Y250470D01*
X463189Y250559D01*
X463140Y250650D01*
X463126Y250664D01*
X463116Y250681D01*
X463037Y250748D01*
X462962Y250820D01*
X462944Y250828D01*
X462929Y250841D01*
X462833Y250880D01*
X462739Y250923D01*
X462719Y250925D01*
X462701Y250933D01*
X462534Y250951D01*
X335588Y250951D01*
X335498Y250937D01*
X335407Y250929D01*
X335377Y250917D01*
X335345Y250912D01*
X335265Y250869D01*
X335181Y250833D01*
X335149Y250807D01*
X335128Y250796D01*
X335106Y250773D01*
X335050Y250728D01*
X313152Y228830D01*
X313099Y228756D01*
X313039Y228687D01*
X313027Y228657D01*
X313008Y228630D01*
X312981Y228543D01*
X312947Y228459D01*
X312943Y228418D01*
X312936Y228395D01*
X312937Y228363D01*
X312929Y228292D01*
X312929Y174948D01*
X312944Y174854D01*
X312953Y174758D01*
X312964Y174733D01*
X312968Y174705D01*
X313013Y174621D01*
X313052Y174533D01*
X313071Y174512D01*
X313084Y174488D01*
X313153Y174422D01*
X313217Y174351D01*
X313242Y174338D01*
X313262Y174318D01*
X313349Y174278D01*
X313432Y174232D01*
X313460Y174227D01*
X313485Y174215D01*
X313580Y174204D01*
X313674Y174187D01*
X313702Y174191D01*
X313729Y174188D01*
X313823Y174208D01*
X313918Y174222D01*
X313942Y174232D01*
X314646Y174421D01*
X320457Y174421D01*
X320457Y167642D01*
X320460Y167622D01*
X320458Y167603D01*
X320480Y167501D01*
X320497Y167399D01*
X320506Y167382D01*
X320510Y167362D01*
X320563Y167273D01*
X320612Y167182D01*
X320626Y167168D01*
X320636Y167151D01*
X320715Y167084D01*
X320790Y167013D01*
X320808Y167004D01*
X320823Y166991D01*
X320919Y166952D01*
X321013Y166909D01*
X321033Y166907D01*
X321051Y166899D01*
X321218Y166881D01*
X321981Y166881D01*
X321981Y166879D01*
X321218Y166879D01*
X321198Y166876D01*
X321179Y166878D01*
X321077Y166856D01*
X320975Y166839D01*
X320958Y166830D01*
X320938Y166826D01*
X320849Y166773D01*
X320758Y166724D01*
X320744Y166710D01*
X320727Y166700D01*
X320660Y166621D01*
X320589Y166546D01*
X320580Y166528D01*
X320567Y166513D01*
X320528Y166417D01*
X320485Y166323D01*
X320483Y166303D01*
X320475Y166285D01*
X320457Y166118D01*
X320457Y159339D01*
X314646Y159339D01*
X313999Y159512D01*
X313420Y159847D01*
X312947Y160320D01*
X312612Y160899D01*
X312439Y161546D01*
X312439Y163690D01*
X312428Y163761D01*
X312426Y163832D01*
X312408Y163881D01*
X312400Y163933D01*
X312366Y163996D01*
X312341Y164063D01*
X312309Y164104D01*
X312284Y164150D01*
X312233Y164199D01*
X312188Y164255D01*
X312144Y164284D01*
X312106Y164319D01*
X312041Y164350D01*
X311981Y164388D01*
X311930Y164401D01*
X311883Y164423D01*
X311812Y164431D01*
X311742Y164448D01*
X311690Y164444D01*
X311639Y164450D01*
X311568Y164435D01*
X311497Y164429D01*
X311449Y164409D01*
X311398Y164398D01*
X311337Y164361D01*
X311271Y164333D01*
X311215Y164288D01*
X311187Y164272D01*
X311172Y164254D01*
X311140Y164228D01*
X310920Y164008D01*
X308728Y161816D01*
X308675Y161742D01*
X308615Y161673D01*
X308603Y161643D01*
X308584Y161616D01*
X308557Y161529D01*
X308523Y161445D01*
X308519Y161404D01*
X308512Y161381D01*
X308513Y161349D01*
X308505Y161278D01*
X308505Y151748D01*
X307612Y150855D01*
X292348Y150855D01*
X291455Y151748D01*
X291455Y163012D01*
X292348Y163905D01*
X295850Y163905D01*
X295870Y163908D01*
X295889Y163906D01*
X295991Y163928D01*
X296093Y163944D01*
X296110Y163954D01*
X296130Y163958D01*
X296219Y164011D01*
X296310Y164060D01*
X296324Y164074D01*
X296341Y164084D01*
X296408Y164163D01*
X296480Y164238D01*
X296488Y164256D01*
X296501Y164271D01*
X296540Y164367D01*
X296583Y164461D01*
X296585Y164481D01*
X296593Y164499D01*
X296611Y164666D01*
X296611Y379734D01*
X296608Y379754D01*
X296610Y379773D01*
X296588Y379875D01*
X296572Y379977D01*
X296562Y379994D01*
X296558Y380014D01*
X296505Y380103D01*
X296456Y380194D01*
X296442Y380208D01*
X296432Y380225D01*
X296353Y380292D01*
X296278Y380364D01*
X296260Y380372D01*
X296245Y380385D01*
X296149Y380424D01*
X296055Y380467D01*
X296035Y380469D01*
X296017Y380477D01*
X295850Y380495D01*
X292528Y380495D01*
X291635Y381388D01*
X291635Y393418D01*
X291621Y393508D01*
X291613Y393599D01*
X291601Y393629D01*
X291596Y393661D01*
X291553Y393741D01*
X291517Y393825D01*
X291491Y393857D01*
X291480Y393878D01*
X291457Y393900D01*
X291412Y393956D01*
X288148Y397220D01*
X288090Y397262D01*
X288038Y397311D01*
X287991Y397333D01*
X287949Y397364D01*
X287880Y397385D01*
X287815Y397415D01*
X287763Y397421D01*
X287713Y397436D01*
X287642Y397434D01*
X287571Y397442D01*
X287520Y397431D01*
X287468Y397430D01*
X287400Y397405D01*
X287330Y397390D01*
X287286Y397363D01*
X287237Y397345D01*
X287181Y397300D01*
X287119Y397264D01*
X287085Y397224D01*
X287045Y397192D01*
X287006Y397131D01*
X286959Y397077D01*
X286940Y397028D01*
X286912Y396985D01*
X286894Y396915D01*
X286867Y396849D01*
X286859Y396777D01*
X286851Y396746D01*
X286853Y396723D01*
X286849Y396682D01*
X286849Y81948D01*
X286864Y81858D01*
X286871Y81767D01*
X286883Y81737D01*
X286889Y81705D01*
X286931Y81625D01*
X286967Y81541D01*
X286993Y81509D01*
X287004Y81488D01*
X287027Y81466D01*
X287072Y81410D01*
X289010Y79472D01*
X289084Y79419D01*
X289153Y79359D01*
X289183Y79347D01*
X289210Y79328D01*
X289297Y79301D01*
X289381Y79267D01*
X289422Y79263D01*
X289445Y79256D01*
X289477Y79257D01*
X289548Y79249D01*
X309873Y79249D01*
X321004Y68118D01*
X321078Y68065D01*
X321147Y68005D01*
X321177Y67993D01*
X321204Y67974D01*
X321291Y67947D01*
X321375Y67913D01*
X321416Y67909D01*
X321439Y67902D01*
X321471Y67903D01*
X321542Y67895D01*
X328182Y67895D01*
X329075Y67002D01*
X329075Y62680D01*
X329077Y62663D01*
X329076Y62648D01*
X329076Y62645D01*
X329076Y62641D01*
X329098Y62539D01*
X329114Y62437D01*
X329124Y62420D01*
X329128Y62400D01*
X329181Y62311D01*
X329230Y62220D01*
X329244Y62206D01*
X329254Y62189D01*
X329333Y62122D01*
X329408Y62050D01*
X329426Y62042D01*
X329441Y62029D01*
X329537Y61990D01*
X329631Y61947D01*
X329651Y61945D01*
X329669Y61937D01*
X329836Y61919D01*
X427072Y61919D01*
X427162Y61933D01*
X427253Y61941D01*
X427283Y61953D01*
X427315Y61958D01*
X427395Y62001D01*
X427479Y62037D01*
X427511Y62063D01*
X427532Y62074D01*
X427538Y62080D01*
X427539Y62081D01*
X427556Y62098D01*
X427610Y62142D01*
X518395Y152926D01*
X518406Y152942D01*
X518422Y152955D01*
X518478Y153042D01*
X518538Y153126D01*
X518544Y153145D01*
X518555Y153162D01*
X518580Y153262D01*
X518610Y153361D01*
X518610Y153381D01*
X518615Y153400D01*
X518607Y153503D01*
X518604Y153607D01*
X518597Y153626D01*
X518596Y153645D01*
X518555Y153740D01*
X518520Y153838D01*
X518507Y153853D01*
X518499Y153872D01*
X518395Y154003D01*
X517480Y154917D01*
X517480Y165123D01*
X524697Y172340D01*
X534903Y172340D01*
X542120Y165123D01*
X542120Y154917D01*
X534903Y147700D01*
X524697Y147700D01*
X523783Y148615D01*
X523767Y148626D01*
X523754Y148642D01*
X523667Y148698D01*
X523583Y148758D01*
X523564Y148764D01*
X523547Y148775D01*
X523447Y148800D01*
X523348Y148830D01*
X523328Y148830D01*
X523309Y148835D01*
X523206Y148827D01*
X523102Y148824D01*
X523083Y148817D01*
X523063Y148816D01*
X522969Y148775D01*
X522871Y148740D01*
X522855Y148727D01*
X522837Y148719D01*
X522706Y148615D01*
X429913Y55821D01*
X329836Y55821D01*
X329816Y55818D01*
X329797Y55820D01*
X329695Y55798D01*
X329593Y55782D01*
X329576Y55772D01*
X329556Y55768D01*
X329467Y55715D01*
X329376Y55666D01*
X329362Y55652D01*
X329345Y55642D01*
X329278Y55563D01*
X329206Y55488D01*
X329198Y55470D01*
X329185Y55455D01*
X329146Y55359D01*
X329103Y55265D01*
X329101Y55245D01*
X329093Y55227D01*
X329075Y55060D01*
X329075Y50738D01*
X328182Y49845D01*
X322442Y49845D01*
X322352Y49831D01*
X322261Y49823D01*
X322231Y49811D01*
X322199Y49806D01*
X322119Y49763D01*
X322035Y49727D01*
X322003Y49701D01*
X321982Y49690D01*
X321960Y49667D01*
X321904Y49622D01*
X307333Y35051D01*
X287610Y35051D01*
X287590Y35048D01*
X287571Y35050D01*
X287469Y35028D01*
X287367Y35012D01*
X287350Y35002D01*
X287330Y34998D01*
X287241Y34945D01*
X287150Y34896D01*
X287136Y34882D01*
X287119Y34872D01*
X287052Y34793D01*
X286981Y34718D01*
X286972Y34700D01*
X286959Y34685D01*
X286920Y34589D01*
X286877Y34495D01*
X286875Y34475D01*
X286867Y34457D01*
X286849Y34290D01*
X286849Y10922D01*
X286852Y10902D01*
X286850Y10883D01*
X286872Y10781D01*
X286889Y10679D01*
X286898Y10662D01*
X286902Y10642D01*
X286955Y10553D01*
X287004Y10462D01*
X287018Y10448D01*
X287028Y10431D01*
X287107Y10364D01*
X287182Y10292D01*
X287200Y10284D01*
X287215Y10271D01*
X287311Y10232D01*
X287405Y10189D01*
X287425Y10187D01*
X287443Y10179D01*
X287610Y10161D01*
X547878Y10161D01*
X547898Y10164D01*
G37*
%LPC*%
G36*
X314155Y105897D02*
X314155Y105897D01*
X313265Y106793D01*
X313325Y124056D01*
X314222Y124946D01*
X317525Y124935D01*
X317545Y124938D01*
X317566Y124936D01*
X317666Y124957D01*
X317768Y124974D01*
X317786Y124983D01*
X317806Y124988D01*
X317895Y125040D01*
X317985Y125088D01*
X318000Y125103D01*
X318017Y125113D01*
X318084Y125191D01*
X318155Y125266D01*
X318164Y125285D01*
X318178Y125300D01*
X318216Y125395D01*
X318260Y125489D01*
X318262Y125509D01*
X318270Y125528D01*
X318289Y125695D01*
X318314Y140593D01*
X318311Y140613D01*
X318313Y140633D01*
X318291Y140734D01*
X318275Y140836D01*
X318265Y140854D01*
X318261Y140874D01*
X318208Y140962D01*
X318160Y141053D01*
X318145Y141067D01*
X318135Y141085D01*
X318056Y141152D01*
X317982Y141223D01*
X317963Y141231D01*
X317948Y141245D01*
X317852Y141283D01*
X317759Y141327D01*
X317739Y141329D01*
X317720Y141337D01*
X317553Y141355D01*
X314348Y141355D01*
X313455Y142248D01*
X313455Y153512D01*
X314348Y154405D01*
X329612Y154405D01*
X330505Y153512D01*
X330505Y151690D01*
X330508Y151670D01*
X330506Y151651D01*
X330528Y151549D01*
X330544Y151447D01*
X330554Y151430D01*
X330558Y151410D01*
X330611Y151321D01*
X330660Y151230D01*
X330674Y151216D01*
X330684Y151199D01*
X330763Y151132D01*
X330838Y151060D01*
X330856Y151052D01*
X330871Y151039D01*
X330967Y151000D01*
X331061Y150957D01*
X331081Y150955D01*
X331099Y150947D01*
X331266Y150929D01*
X442212Y150929D01*
X442302Y150943D01*
X442393Y150951D01*
X442423Y150963D01*
X442455Y150968D01*
X442535Y151011D01*
X442619Y151047D01*
X442651Y151073D01*
X442672Y151084D01*
X442694Y151107D01*
X442750Y151152D01*
X470384Y178786D01*
X470426Y178844D01*
X470475Y178896D01*
X470497Y178943D01*
X470528Y178985D01*
X470549Y179054D01*
X470579Y179119D01*
X470585Y179171D01*
X470600Y179221D01*
X470598Y179292D01*
X470606Y179363D01*
X470595Y179414D01*
X470594Y179466D01*
X470569Y179534D01*
X470554Y179604D01*
X470527Y179649D01*
X470509Y179697D01*
X470464Y179753D01*
X470428Y179815D01*
X470388Y179849D01*
X470356Y179889D01*
X470295Y179928D01*
X470241Y179975D01*
X470192Y179994D01*
X470149Y180022D01*
X470079Y180040D01*
X470013Y180067D01*
X469941Y180075D01*
X469910Y180083D01*
X469887Y180081D01*
X469846Y180085D01*
X464188Y180085D01*
X463295Y180978D01*
X463295Y207642D01*
X464188Y208535D01*
X516252Y208535D01*
X517145Y207642D01*
X517145Y180978D01*
X516252Y180085D01*
X480622Y180085D01*
X480532Y180071D01*
X480441Y180063D01*
X480411Y180051D01*
X480379Y180046D01*
X480299Y180003D01*
X480215Y179967D01*
X480183Y179941D01*
X480162Y179930D01*
X480140Y179907D01*
X480084Y179862D01*
X445053Y144831D01*
X331266Y144831D01*
X331246Y144828D01*
X331227Y144830D01*
X331125Y144808D01*
X331023Y144792D01*
X331006Y144782D01*
X330986Y144778D01*
X330897Y144725D01*
X330806Y144676D01*
X330792Y144662D01*
X330775Y144652D01*
X330708Y144573D01*
X330636Y144498D01*
X330628Y144480D01*
X330615Y144465D01*
X330576Y144369D01*
X330533Y144275D01*
X330531Y144255D01*
X330523Y144237D01*
X330505Y144070D01*
X330505Y142248D01*
X329612Y141355D01*
X325173Y141355D01*
X325154Y141352D01*
X325135Y141354D01*
X325033Y141332D01*
X324930Y141316D01*
X324913Y141307D01*
X324894Y141302D01*
X324804Y141249D01*
X324713Y141200D01*
X324699Y141187D01*
X324683Y141177D01*
X324615Y141097D01*
X324543Y141022D01*
X324535Y141005D01*
X324523Y140990D01*
X324484Y140894D01*
X324440Y140799D01*
X324438Y140780D01*
X324430Y140762D01*
X324412Y140595D01*
X324386Y125671D01*
X324389Y125652D01*
X324387Y125633D01*
X324409Y125531D01*
X324425Y125428D01*
X324434Y125411D01*
X324438Y125392D01*
X324492Y125302D01*
X324540Y125210D01*
X324554Y125197D01*
X324564Y125181D01*
X324643Y125113D01*
X324718Y125041D01*
X324736Y125033D01*
X324750Y125020D01*
X324847Y124981D01*
X324941Y124937D01*
X324960Y124935D01*
X324978Y124927D01*
X325145Y124908D01*
X328485Y124897D01*
X329375Y124000D01*
X329314Y106737D01*
X328418Y105847D01*
X314155Y105897D01*
G37*
%LPD*%
%LPC*%
G36*
X498222Y26034D02*
X498222Y26034D01*
X491601Y27809D01*
X485664Y31236D01*
X480816Y36084D01*
X477389Y42021D01*
X475614Y48642D01*
X475614Y55498D01*
X477389Y62119D01*
X480816Y68056D01*
X485664Y72904D01*
X491601Y76331D01*
X498222Y78106D01*
X505078Y78106D01*
X511699Y76331D01*
X517636Y72904D01*
X522484Y68056D01*
X525911Y62119D01*
X527686Y55498D01*
X527686Y48642D01*
X525911Y42021D01*
X522484Y36084D01*
X517636Y31236D01*
X511699Y27809D01*
X505078Y26034D01*
X498222Y26034D01*
G37*
%LPD*%
%LPC*%
G36*
X498222Y368934D02*
X498222Y368934D01*
X491601Y370709D01*
X485664Y374136D01*
X480816Y378984D01*
X477389Y384921D01*
X475614Y391542D01*
X475614Y398398D01*
X477389Y405019D01*
X480816Y410956D01*
X485664Y415804D01*
X491601Y419231D01*
X498222Y421006D01*
X505078Y421006D01*
X511699Y419231D01*
X517636Y415804D01*
X522484Y410956D01*
X525911Y405019D01*
X527686Y398398D01*
X527686Y391542D01*
X525911Y384921D01*
X522484Y378984D01*
X517636Y374136D01*
X511699Y370709D01*
X505078Y368934D01*
X498222Y368934D01*
G37*
%LPD*%
%LPC*%
G36*
X411438Y174859D02*
X411438Y174859D01*
X405038Y176574D01*
X399301Y179886D01*
X394616Y184571D01*
X391304Y190308D01*
X389589Y196708D01*
X389589Y203332D01*
X391304Y209732D01*
X394616Y215469D01*
X399301Y220154D01*
X405038Y223466D01*
X411438Y225181D01*
X418062Y225181D01*
X424462Y223466D01*
X430199Y220154D01*
X434884Y215469D01*
X438196Y209732D01*
X439911Y203332D01*
X439911Y196708D01*
X438196Y190308D01*
X434884Y184571D01*
X430199Y179886D01*
X424462Y176574D01*
X418062Y174859D01*
X411438Y174859D01*
G37*
%LPD*%
%LPC*%
G36*
X531323Y288543D02*
X531323Y288543D01*
X531323Y300356D01*
X535324Y300356D01*
X543136Y292544D01*
X543136Y288543D01*
X531323Y288543D01*
G37*
%LPD*%
%LPC*%
G36*
X516464Y288543D02*
X516464Y288543D01*
X516464Y292544D01*
X524276Y300356D01*
X528277Y300356D01*
X528277Y288543D01*
X516464Y288543D01*
G37*
%LPD*%
%LPC*%
G36*
X531323Y273684D02*
X531323Y273684D01*
X531323Y285497D01*
X543136Y285497D01*
X543136Y281496D01*
X535324Y273684D01*
X531323Y273684D01*
G37*
%LPD*%
%LPC*%
G36*
X524276Y273684D02*
X524276Y273684D01*
X516464Y281496D01*
X516464Y285497D01*
X528277Y285497D01*
X528277Y273684D01*
X524276Y273684D01*
G37*
%LPD*%
%LPC*%
G36*
X303849Y116981D02*
X303849Y116981D01*
X303880Y125998D01*
X309191Y125980D01*
X309837Y125805D01*
X310415Y125468D01*
X310886Y124993D01*
X311219Y124413D01*
X311390Y123766D01*
X311366Y116955D01*
X303849Y116981D01*
G37*
%LPD*%
%LPC*%
G36*
X303806Y104917D02*
X303806Y104917D01*
X303838Y113935D01*
X311355Y113908D01*
X311332Y107097D01*
X311156Y106452D01*
X310820Y105873D01*
X310345Y105402D01*
X309764Y105070D01*
X309118Y104899D01*
X303806Y104917D01*
G37*
%LPD*%
%LPC*%
G36*
X293285Y117018D02*
X293285Y117018D01*
X293308Y123829D01*
X293484Y124475D01*
X293820Y125053D01*
X294295Y125524D01*
X294876Y125857D01*
X295522Y126028D01*
X300834Y126009D01*
X300802Y116992D01*
X293285Y117018D01*
G37*
%LPD*%
%LPC*%
G36*
X295449Y104946D02*
X295449Y104946D01*
X294803Y105122D01*
X294225Y105458D01*
X293754Y105933D01*
X293421Y106513D01*
X293250Y107160D01*
X293274Y113972D01*
X300792Y113945D01*
X300760Y104928D01*
X295449Y104946D01*
G37*
%LPD*%
%LPC*%
G36*
X323503Y168403D02*
X323503Y168403D01*
X323503Y174421D01*
X329314Y174421D01*
X329961Y174248D01*
X330540Y173913D01*
X331013Y173440D01*
X331348Y172861D01*
X331521Y172214D01*
X331521Y168403D01*
X323503Y168403D01*
G37*
%LPD*%
%LPC*%
G36*
X323503Y159339D02*
X323503Y159339D01*
X323503Y165357D01*
X331521Y165357D01*
X331521Y161546D01*
X331348Y160899D01*
X331013Y160320D01*
X330540Y159847D01*
X329961Y159512D01*
X329314Y159339D01*
X323503Y159339D01*
G37*
%LPD*%
%LPC*%
G36*
X529799Y287019D02*
X529799Y287019D01*
X529799Y287021D01*
X529801Y287021D01*
X529801Y287019D01*
X529799Y287019D01*
G37*
%LPD*%
%LPC*%
G36*
X302319Y115462D02*
X302319Y115462D01*
X302319Y115464D01*
X302321Y115464D01*
X302321Y115462D01*
X302319Y115462D01*
G37*
%LPD*%
D10*
X299980Y157380D03*
X321980Y166880D03*
X321980Y147880D03*
D11*
X529800Y287020D03*
D12*
G36*
X308792Y107441D02*
X295793Y107486D01*
X295848Y123485D01*
X308847Y123440D01*
X308792Y107441D01*
G37*
G36*
X327792Y107375D02*
X314793Y107420D01*
X314848Y123419D01*
X327847Y123374D01*
X327792Y107375D01*
G37*
X318660Y390020D03*
X299660Y390020D03*
D13*
X68010Y351940D03*
X83250Y351940D03*
X98490Y351940D03*
X113730Y351940D03*
X128970Y351940D03*
X144210Y351940D03*
X159450Y351940D03*
X174690Y351940D03*
X189930Y351940D03*
X205170Y351940D03*
X220410Y351940D03*
X235650Y351940D03*
X235650Y95400D03*
X220410Y95400D03*
X205170Y95400D03*
X189930Y95400D03*
X174690Y95400D03*
X159450Y95400D03*
X144210Y95400D03*
X128970Y95400D03*
X113730Y95400D03*
X98490Y95400D03*
X83250Y95400D03*
X68010Y95400D03*
D11*
X529800Y160020D03*
D14*
X302050Y58870D03*
X321050Y58870D03*
X253030Y378890D03*
X272030Y378890D03*
D15*
X227330Y59690D02*
X227330Y44450D01*
X201930Y44450D02*
X201930Y59690D01*
X176530Y59690D02*
X176530Y44450D01*
X151130Y44450D02*
X151130Y59690D01*
X125730Y59690D02*
X125730Y44450D01*
X100330Y44450D02*
X100330Y59690D01*
D16*
X490220Y194310D03*
X490220Y254000D03*
D17*
X321980Y147880D02*
X321374Y147274D01*
X321320Y115397D01*
X321980Y147880D02*
X443790Y147880D01*
X490220Y194310D01*
X205170Y351940D02*
X205170Y384240D01*
X232410Y411480D01*
X278200Y411480D01*
X299660Y390020D01*
X309880Y167280D02*
X299980Y157380D01*
X309880Y167280D02*
X309880Y229870D01*
X334010Y254000D01*
X490220Y254000D01*
X299660Y157700D02*
X299660Y390020D01*
X299660Y157700D02*
X299980Y157380D01*
X128970Y367200D02*
X128700Y367200D01*
D18*
X128700Y367200D03*
D17*
X68010Y95629D02*
X68010Y95400D01*
X220410Y351940D02*
X220980Y351940D01*
X220980Y367030D01*
D18*
X220980Y367030D03*
D17*
X128970Y367200D02*
X128970Y351940D01*
X83270Y367200D02*
X68010Y351940D01*
X83270Y367200D02*
X128700Y367200D01*
X68010Y95400D02*
X100330Y63080D01*
X100330Y52070D01*
X220410Y95400D02*
X220980Y94830D01*
X220980Y81280D01*
D18*
X220980Y81280D03*
D17*
X188810Y81280D02*
X174690Y95400D01*
X188810Y81280D02*
X220980Y81280D01*
X235650Y95400D02*
X272180Y58870D01*
X302050Y58870D01*
X235650Y351940D02*
X235650Y361510D01*
X253030Y378890D01*
X272030Y378890D02*
X272030Y92140D01*
X266700Y52070D02*
X227330Y52070D01*
X266700Y52070D02*
X280670Y38100D01*
X306070Y38100D01*
X321050Y53080D01*
X321050Y58870D01*
X287970Y76200D02*
X272030Y92140D01*
X287970Y76200D02*
X308610Y76200D01*
X321050Y63760D01*
X321050Y58870D01*
X428650Y58870D01*
X529800Y160020D01*
X189930Y351940D02*
X189930Y387030D01*
X226800Y423900D02*
X286200Y423900D01*
X318660Y391440D01*
X318660Y390020D01*
X226800Y423900D02*
X189930Y387030D01*
X98490Y95400D02*
X122770Y71120D01*
X132080Y71120D01*
X151130Y52070D01*
X152400Y76200D02*
X132930Y76200D01*
X152400Y76200D02*
X176530Y52070D01*
X132930Y76200D02*
X113730Y95400D01*
X128970Y95400D02*
X143090Y81280D01*
X171450Y81280D01*
X200660Y52070D01*
X201930Y52070D01*
X125730Y52070D02*
X83250Y94550D01*
X83250Y95400D01*
M02*
