G04 EAGLE Gerber X2 export*
%TF.Part,Single*%
%TF.FileFunction,Profile,NP*%
%TF.FilePolarity,Positive*%
%TF.GenerationSoftware,Autodesk,EAGLE,8.7.0*%
%TF.CreationDate,2018-04-13T05:44:18Z*%
G75*
%MOMM*%
%FSLAX34Y34*%
%LPD*%
%AMOC8*
5,1,8,0,0,1.08239X$1,22.5*%
G01*
%ADD10C,0.254000*%


D10*
X0Y0D02*
X558800Y0D01*
X558800Y447040D01*
X0Y447040D01*
X0Y0D01*
X73025Y51550D02*
X72957Y50513D01*
X72821Y49483D01*
X72619Y48463D01*
X72350Y47459D01*
X72015Y46475D01*
X71618Y45515D01*
X71158Y44583D01*
X70638Y43682D01*
X70061Y42818D01*
X69428Y41994D01*
X68743Y41212D01*
X68008Y40477D01*
X67226Y39792D01*
X66402Y39159D01*
X65538Y38582D01*
X64637Y38062D01*
X63705Y37602D01*
X62745Y37205D01*
X61761Y36870D01*
X60757Y36601D01*
X59737Y36399D01*
X58707Y36263D01*
X57670Y36195D01*
X56630Y36195D01*
X55593Y36263D01*
X54563Y36399D01*
X53543Y36601D01*
X52539Y36870D01*
X51555Y37205D01*
X50595Y37602D01*
X49663Y38062D01*
X48762Y38582D01*
X47898Y39159D01*
X47074Y39792D01*
X46292Y40477D01*
X45557Y41212D01*
X44872Y41994D01*
X44239Y42818D01*
X43662Y43682D01*
X43142Y44583D01*
X42682Y45515D01*
X42285Y46475D01*
X41950Y47459D01*
X41681Y48463D01*
X41479Y49483D01*
X41343Y50513D01*
X41275Y51550D01*
X41275Y52590D01*
X41343Y53627D01*
X41479Y54657D01*
X41681Y55677D01*
X41950Y56681D01*
X42285Y57665D01*
X42682Y58625D01*
X43142Y59557D01*
X43662Y60458D01*
X44239Y61322D01*
X44872Y62146D01*
X45557Y62928D01*
X46292Y63663D01*
X47074Y64348D01*
X47898Y64981D01*
X48762Y65558D01*
X49663Y66078D01*
X50595Y66538D01*
X51555Y66935D01*
X52539Y67270D01*
X53543Y67539D01*
X54563Y67741D01*
X55593Y67877D01*
X56630Y67945D01*
X57670Y67945D01*
X58707Y67877D01*
X59737Y67741D01*
X60757Y67539D01*
X61761Y67270D01*
X62745Y66935D01*
X63705Y66538D01*
X64637Y66078D01*
X65538Y65558D01*
X66402Y64981D01*
X67226Y64348D01*
X68008Y63663D01*
X68743Y62928D01*
X69428Y62146D01*
X70061Y61322D01*
X70638Y60458D01*
X71158Y59557D01*
X71618Y58625D01*
X72015Y57665D01*
X72350Y56681D01*
X72619Y55677D01*
X72821Y54657D01*
X72957Y53627D01*
X73025Y52590D01*
X73025Y51550D01*
X73025Y394450D02*
X72957Y393413D01*
X72821Y392383D01*
X72619Y391363D01*
X72350Y390359D01*
X72015Y389375D01*
X71618Y388415D01*
X71158Y387483D01*
X70638Y386582D01*
X70061Y385718D01*
X69428Y384894D01*
X68743Y384112D01*
X68008Y383377D01*
X67226Y382692D01*
X66402Y382059D01*
X65538Y381482D01*
X64637Y380962D01*
X63705Y380502D01*
X62745Y380105D01*
X61761Y379770D01*
X60757Y379501D01*
X59737Y379299D01*
X58707Y379163D01*
X57670Y379095D01*
X56630Y379095D01*
X55593Y379163D01*
X54563Y379299D01*
X53543Y379501D01*
X52539Y379770D01*
X51555Y380105D01*
X50595Y380502D01*
X49663Y380962D01*
X48762Y381482D01*
X47898Y382059D01*
X47074Y382692D01*
X46292Y383377D01*
X45557Y384112D01*
X44872Y384894D01*
X44239Y385718D01*
X43662Y386582D01*
X43142Y387483D01*
X42682Y388415D01*
X42285Y389375D01*
X41950Y390359D01*
X41681Y391363D01*
X41479Y392383D01*
X41343Y393413D01*
X41275Y394450D01*
X41275Y395490D01*
X41343Y396527D01*
X41479Y397557D01*
X41681Y398577D01*
X41950Y399581D01*
X42285Y400565D01*
X42682Y401525D01*
X43142Y402457D01*
X43662Y403358D01*
X44239Y404222D01*
X44872Y405046D01*
X45557Y405828D01*
X46292Y406563D01*
X47074Y407248D01*
X47898Y407881D01*
X48762Y408458D01*
X49663Y408978D01*
X50595Y409438D01*
X51555Y409835D01*
X52539Y410170D01*
X53543Y410439D01*
X54563Y410641D01*
X55593Y410777D01*
X56630Y410845D01*
X57670Y410845D01*
X58707Y410777D01*
X59737Y410641D01*
X60757Y410439D01*
X61761Y410170D01*
X62745Y409835D01*
X63705Y409438D01*
X64637Y408978D01*
X65538Y408458D01*
X66402Y407881D01*
X67226Y407248D01*
X68008Y406563D01*
X68743Y405828D01*
X69428Y405046D01*
X70061Y404222D01*
X70638Y403358D01*
X71158Y402457D01*
X71618Y401525D01*
X72015Y400565D01*
X72350Y399581D01*
X72619Y398577D01*
X72821Y397557D01*
X72957Y396527D01*
X73025Y395490D01*
X73025Y394450D01*
X517525Y394450D02*
X517457Y393413D01*
X517321Y392383D01*
X517119Y391363D01*
X516850Y390359D01*
X516515Y389375D01*
X516118Y388415D01*
X515658Y387483D01*
X515138Y386582D01*
X514561Y385718D01*
X513928Y384894D01*
X513243Y384112D01*
X512508Y383377D01*
X511726Y382692D01*
X510902Y382059D01*
X510038Y381482D01*
X509137Y380962D01*
X508205Y380502D01*
X507245Y380105D01*
X506261Y379770D01*
X505257Y379501D01*
X504237Y379299D01*
X503207Y379163D01*
X502170Y379095D01*
X501130Y379095D01*
X500093Y379163D01*
X499063Y379299D01*
X498043Y379501D01*
X497039Y379770D01*
X496055Y380105D01*
X495095Y380502D01*
X494163Y380962D01*
X493262Y381482D01*
X492398Y382059D01*
X491574Y382692D01*
X490792Y383377D01*
X490057Y384112D01*
X489372Y384894D01*
X488739Y385718D01*
X488162Y386582D01*
X487642Y387483D01*
X487182Y388415D01*
X486785Y389375D01*
X486450Y390359D01*
X486181Y391363D01*
X485979Y392383D01*
X485843Y393413D01*
X485775Y394450D01*
X485775Y395490D01*
X485843Y396527D01*
X485979Y397557D01*
X486181Y398577D01*
X486450Y399581D01*
X486785Y400565D01*
X487182Y401525D01*
X487642Y402457D01*
X488162Y403358D01*
X488739Y404222D01*
X489372Y405046D01*
X490057Y405828D01*
X490792Y406563D01*
X491574Y407248D01*
X492398Y407881D01*
X493262Y408458D01*
X494163Y408978D01*
X495095Y409438D01*
X496055Y409835D01*
X497039Y410170D01*
X498043Y410439D01*
X499063Y410641D01*
X500093Y410777D01*
X501130Y410845D01*
X502170Y410845D01*
X503207Y410777D01*
X504237Y410641D01*
X505257Y410439D01*
X506261Y410170D01*
X507245Y409835D01*
X508205Y409438D01*
X509137Y408978D01*
X510038Y408458D01*
X510902Y407881D01*
X511726Y407248D01*
X512508Y406563D01*
X513243Y405828D01*
X513928Y405046D01*
X514561Y404222D01*
X515138Y403358D01*
X515658Y402457D01*
X516118Y401525D01*
X516515Y400565D01*
X516850Y399581D01*
X517119Y398577D01*
X517321Y397557D01*
X517457Y396527D01*
X517525Y395490D01*
X517525Y394450D01*
X517525Y51550D02*
X517457Y50513D01*
X517321Y49483D01*
X517119Y48463D01*
X516850Y47459D01*
X516515Y46475D01*
X516118Y45515D01*
X515658Y44583D01*
X515138Y43682D01*
X514561Y42818D01*
X513928Y41994D01*
X513243Y41212D01*
X512508Y40477D01*
X511726Y39792D01*
X510902Y39159D01*
X510038Y38582D01*
X509137Y38062D01*
X508205Y37602D01*
X507245Y37205D01*
X506261Y36870D01*
X505257Y36601D01*
X504237Y36399D01*
X503207Y36263D01*
X502170Y36195D01*
X501130Y36195D01*
X500093Y36263D01*
X499063Y36399D01*
X498043Y36601D01*
X497039Y36870D01*
X496055Y37205D01*
X495095Y37602D01*
X494163Y38062D01*
X493262Y38582D01*
X492398Y39159D01*
X491574Y39792D01*
X490792Y40477D01*
X490057Y41212D01*
X489372Y41994D01*
X488739Y42818D01*
X488162Y43682D01*
X487642Y44583D01*
X487182Y45515D01*
X486785Y46475D01*
X486450Y47459D01*
X486181Y48463D01*
X485979Y49483D01*
X485843Y50513D01*
X485775Y51550D01*
X485775Y52590D01*
X485843Y53627D01*
X485979Y54657D01*
X486181Y55677D01*
X486450Y56681D01*
X486785Y57665D01*
X487182Y58625D01*
X487642Y59557D01*
X488162Y60458D01*
X488739Y61322D01*
X489372Y62146D01*
X490057Y62928D01*
X490792Y63663D01*
X491574Y64348D01*
X492398Y64981D01*
X493262Y65558D01*
X494163Y66078D01*
X495095Y66538D01*
X496055Y66935D01*
X497039Y67270D01*
X498043Y67539D01*
X499063Y67741D01*
X500093Y67877D01*
X501130Y67945D01*
X502170Y67945D01*
X503207Y67877D01*
X504237Y67741D01*
X505257Y67539D01*
X506261Y67270D01*
X507245Y66935D01*
X508205Y66538D01*
X509137Y66078D01*
X510038Y65558D01*
X510902Y64981D01*
X511726Y64348D01*
X512508Y63663D01*
X513243Y62928D01*
X513928Y62146D01*
X514561Y61322D01*
X515138Y60458D01*
X515658Y59557D01*
X516118Y58625D01*
X516515Y57665D01*
X516850Y56681D01*
X517119Y55677D01*
X517321Y54657D01*
X517457Y53627D01*
X517525Y52590D01*
X517525Y51550D01*
X429750Y199484D02*
X429674Y198416D01*
X429521Y197355D01*
X429293Y196308D01*
X428991Y195280D01*
X428617Y194276D01*
X428172Y193301D01*
X427658Y192361D01*
X427079Y191460D01*
X426437Y190602D01*
X425735Y189792D01*
X424978Y189035D01*
X424168Y188333D01*
X423310Y187691D01*
X422409Y187112D01*
X421469Y186598D01*
X420494Y186153D01*
X419490Y185779D01*
X418462Y185477D01*
X417415Y185249D01*
X416354Y185096D01*
X415286Y185020D01*
X414214Y185020D01*
X413146Y185096D01*
X412085Y185249D01*
X411038Y185477D01*
X410010Y185779D01*
X409006Y186153D01*
X408031Y186598D01*
X407091Y187112D01*
X406190Y187691D01*
X405332Y188333D01*
X404522Y189035D01*
X403765Y189792D01*
X403063Y190602D01*
X402421Y191460D01*
X401842Y192361D01*
X401328Y193301D01*
X400883Y194276D01*
X400509Y195280D01*
X400207Y196308D01*
X399979Y197355D01*
X399826Y198416D01*
X399750Y199484D01*
X399750Y200556D01*
X399826Y201624D01*
X399979Y202685D01*
X400207Y203732D01*
X400509Y204760D01*
X400883Y205764D01*
X401328Y206739D01*
X401842Y207679D01*
X402421Y208580D01*
X403063Y209438D01*
X403765Y210248D01*
X404522Y211005D01*
X405332Y211707D01*
X406190Y212349D01*
X407091Y212928D01*
X408031Y213442D01*
X409006Y213887D01*
X410010Y214261D01*
X411038Y214563D01*
X412085Y214791D01*
X413146Y214944D01*
X414214Y215020D01*
X415286Y215020D01*
X416354Y214944D01*
X417415Y214791D01*
X418462Y214563D01*
X419490Y214261D01*
X420494Y213887D01*
X421469Y213442D01*
X422409Y212928D01*
X423310Y212349D01*
X424168Y211707D01*
X424978Y211005D01*
X425735Y210248D01*
X426437Y209438D01*
X427079Y208580D01*
X427658Y207679D01*
X428172Y206739D01*
X428617Y205764D01*
X428991Y204760D01*
X429293Y203732D01*
X429521Y202685D01*
X429674Y201624D01*
X429750Y200556D01*
X429750Y199484D01*
X73025Y51550D02*
X72957Y50513D01*
X72821Y49483D01*
X72619Y48463D01*
X72350Y47459D01*
X72015Y46475D01*
X71618Y45515D01*
X71158Y44583D01*
X70638Y43682D01*
X70061Y42818D01*
X69428Y41994D01*
X68743Y41212D01*
X68008Y40477D01*
X67226Y39792D01*
X66402Y39159D01*
X65538Y38582D01*
X64637Y38062D01*
X63705Y37602D01*
X62745Y37205D01*
X61761Y36870D01*
X60757Y36601D01*
X59737Y36399D01*
X58707Y36263D01*
X57670Y36195D01*
X56630Y36195D01*
X55593Y36263D01*
X54563Y36399D01*
X53543Y36601D01*
X52539Y36870D01*
X51555Y37205D01*
X50595Y37602D01*
X49663Y38062D01*
X48762Y38582D01*
X47898Y39159D01*
X47074Y39792D01*
X46292Y40477D01*
X45557Y41212D01*
X44872Y41994D01*
X44239Y42818D01*
X43662Y43682D01*
X43142Y44583D01*
X42682Y45515D01*
X42285Y46475D01*
X41950Y47459D01*
X41681Y48463D01*
X41479Y49483D01*
X41343Y50513D01*
X41275Y51550D01*
X41275Y52590D01*
X41343Y53627D01*
X41479Y54657D01*
X41681Y55677D01*
X41950Y56681D01*
X42285Y57665D01*
X42682Y58625D01*
X43142Y59557D01*
X43662Y60458D01*
X44239Y61322D01*
X44872Y62146D01*
X45557Y62928D01*
X46292Y63663D01*
X47074Y64348D01*
X47898Y64981D01*
X48762Y65558D01*
X49663Y66078D01*
X50595Y66538D01*
X51555Y66935D01*
X52539Y67270D01*
X53543Y67539D01*
X54563Y67741D01*
X55593Y67877D01*
X56630Y67945D01*
X57670Y67945D01*
X58707Y67877D01*
X59737Y67741D01*
X60757Y67539D01*
X61761Y67270D01*
X62745Y66935D01*
X63705Y66538D01*
X64637Y66078D01*
X65538Y65558D01*
X66402Y64981D01*
X67226Y64348D01*
X68008Y63663D01*
X68743Y62928D01*
X69428Y62146D01*
X70061Y61322D01*
X70638Y60458D01*
X71158Y59557D01*
X71618Y58625D01*
X72015Y57665D01*
X72350Y56681D01*
X72619Y55677D01*
X72821Y54657D01*
X72957Y53627D01*
X73025Y52590D01*
X73025Y51550D01*
X73025Y394450D02*
X72957Y393413D01*
X72821Y392383D01*
X72619Y391363D01*
X72350Y390359D01*
X72015Y389375D01*
X71618Y388415D01*
X71158Y387483D01*
X70638Y386582D01*
X70061Y385718D01*
X69428Y384894D01*
X68743Y384112D01*
X68008Y383377D01*
X67226Y382692D01*
X66402Y382059D01*
X65538Y381482D01*
X64637Y380962D01*
X63705Y380502D01*
X62745Y380105D01*
X61761Y379770D01*
X60757Y379501D01*
X59737Y379299D01*
X58707Y379163D01*
X57670Y379095D01*
X56630Y379095D01*
X55593Y379163D01*
X54563Y379299D01*
X53543Y379501D01*
X52539Y379770D01*
X51555Y380105D01*
X50595Y380502D01*
X49663Y380962D01*
X48762Y381482D01*
X47898Y382059D01*
X47074Y382692D01*
X46292Y383377D01*
X45557Y384112D01*
X44872Y384894D01*
X44239Y385718D01*
X43662Y386582D01*
X43142Y387483D01*
X42682Y388415D01*
X42285Y389375D01*
X41950Y390359D01*
X41681Y391363D01*
X41479Y392383D01*
X41343Y393413D01*
X41275Y394450D01*
X41275Y395490D01*
X41343Y396527D01*
X41479Y397557D01*
X41681Y398577D01*
X41950Y399581D01*
X42285Y400565D01*
X42682Y401525D01*
X43142Y402457D01*
X43662Y403358D01*
X44239Y404222D01*
X44872Y405046D01*
X45557Y405828D01*
X46292Y406563D01*
X47074Y407248D01*
X47898Y407881D01*
X48762Y408458D01*
X49663Y408978D01*
X50595Y409438D01*
X51555Y409835D01*
X52539Y410170D01*
X53543Y410439D01*
X54563Y410641D01*
X55593Y410777D01*
X56630Y410845D01*
X57670Y410845D01*
X58707Y410777D01*
X59737Y410641D01*
X60757Y410439D01*
X61761Y410170D01*
X62745Y409835D01*
X63705Y409438D01*
X64637Y408978D01*
X65538Y408458D01*
X66402Y407881D01*
X67226Y407248D01*
X68008Y406563D01*
X68743Y405828D01*
X69428Y405046D01*
X70061Y404222D01*
X70638Y403358D01*
X71158Y402457D01*
X71618Y401525D01*
X72015Y400565D01*
X72350Y399581D01*
X72619Y398577D01*
X72821Y397557D01*
X72957Y396527D01*
X73025Y395490D01*
X73025Y394450D01*
X517525Y394450D02*
X517457Y393413D01*
X517321Y392383D01*
X517119Y391363D01*
X516850Y390359D01*
X516515Y389375D01*
X516118Y388415D01*
X515658Y387483D01*
X515138Y386582D01*
X514561Y385718D01*
X513928Y384894D01*
X513243Y384112D01*
X512508Y383377D01*
X511726Y382692D01*
X510902Y382059D01*
X510038Y381482D01*
X509137Y380962D01*
X508205Y380502D01*
X507245Y380105D01*
X506261Y379770D01*
X505257Y379501D01*
X504237Y379299D01*
X503207Y379163D01*
X502170Y379095D01*
X501130Y379095D01*
X500093Y379163D01*
X499063Y379299D01*
X498043Y379501D01*
X497039Y379770D01*
X496055Y380105D01*
X495095Y380502D01*
X494163Y380962D01*
X493262Y381482D01*
X492398Y382059D01*
X491574Y382692D01*
X490792Y383377D01*
X490057Y384112D01*
X489372Y384894D01*
X488739Y385718D01*
X488162Y386582D01*
X487642Y387483D01*
X487182Y388415D01*
X486785Y389375D01*
X486450Y390359D01*
X486181Y391363D01*
X485979Y392383D01*
X485843Y393413D01*
X485775Y394450D01*
X485775Y395490D01*
X485843Y396527D01*
X485979Y397557D01*
X486181Y398577D01*
X486450Y399581D01*
X486785Y400565D01*
X487182Y401525D01*
X487642Y402457D01*
X488162Y403358D01*
X488739Y404222D01*
X489372Y405046D01*
X490057Y405828D01*
X490792Y406563D01*
X491574Y407248D01*
X492398Y407881D01*
X493262Y408458D01*
X494163Y408978D01*
X495095Y409438D01*
X496055Y409835D01*
X497039Y410170D01*
X498043Y410439D01*
X499063Y410641D01*
X500093Y410777D01*
X501130Y410845D01*
X502170Y410845D01*
X503207Y410777D01*
X504237Y410641D01*
X505257Y410439D01*
X506261Y410170D01*
X507245Y409835D01*
X508205Y409438D01*
X509137Y408978D01*
X510038Y408458D01*
X510902Y407881D01*
X511726Y407248D01*
X512508Y406563D01*
X513243Y405828D01*
X513928Y405046D01*
X514561Y404222D01*
X515138Y403358D01*
X515658Y402457D01*
X516118Y401525D01*
X516515Y400565D01*
X516850Y399581D01*
X517119Y398577D01*
X517321Y397557D01*
X517457Y396527D01*
X517525Y395490D01*
X517525Y394450D01*
X517525Y51550D02*
X517457Y50513D01*
X517321Y49483D01*
X517119Y48463D01*
X516850Y47459D01*
X516515Y46475D01*
X516118Y45515D01*
X515658Y44583D01*
X515138Y43682D01*
X514561Y42818D01*
X513928Y41994D01*
X513243Y41212D01*
X512508Y40477D01*
X511726Y39792D01*
X510902Y39159D01*
X510038Y38582D01*
X509137Y38062D01*
X508205Y37602D01*
X507245Y37205D01*
X506261Y36870D01*
X505257Y36601D01*
X504237Y36399D01*
X503207Y36263D01*
X502170Y36195D01*
X501130Y36195D01*
X500093Y36263D01*
X499063Y36399D01*
X498043Y36601D01*
X497039Y36870D01*
X496055Y37205D01*
X495095Y37602D01*
X494163Y38062D01*
X493262Y38582D01*
X492398Y39159D01*
X491574Y39792D01*
X490792Y40477D01*
X490057Y41212D01*
X489372Y41994D01*
X488739Y42818D01*
X488162Y43682D01*
X487642Y44583D01*
X487182Y45515D01*
X486785Y46475D01*
X486450Y47459D01*
X486181Y48463D01*
X485979Y49483D01*
X485843Y50513D01*
X485775Y51550D01*
X485775Y52590D01*
X485843Y53627D01*
X485979Y54657D01*
X486181Y55677D01*
X486450Y56681D01*
X486785Y57665D01*
X487182Y58625D01*
X487642Y59557D01*
X488162Y60458D01*
X488739Y61322D01*
X489372Y62146D01*
X490057Y62928D01*
X490792Y63663D01*
X491574Y64348D01*
X492398Y64981D01*
X493262Y65558D01*
X494163Y66078D01*
X495095Y66538D01*
X496055Y66935D01*
X497039Y67270D01*
X498043Y67539D01*
X499063Y67741D01*
X500093Y67877D01*
X501130Y67945D01*
X502170Y67945D01*
X503207Y67877D01*
X504237Y67741D01*
X505257Y67539D01*
X506261Y67270D01*
X507245Y66935D01*
X508205Y66538D01*
X509137Y66078D01*
X510038Y65558D01*
X510902Y64981D01*
X511726Y64348D01*
X512508Y63663D01*
X513243Y62928D01*
X513928Y62146D01*
X514561Y61322D01*
X515138Y60458D01*
X515658Y59557D01*
X516118Y58625D01*
X516515Y57665D01*
X516850Y56681D01*
X517119Y55677D01*
X517321Y54657D01*
X517457Y53627D01*
X517525Y52590D01*
X517525Y51550D01*
X429750Y199484D02*
X429674Y198416D01*
X429521Y197355D01*
X429293Y196308D01*
X428991Y195280D01*
X428617Y194276D01*
X428172Y193301D01*
X427658Y192361D01*
X427079Y191460D01*
X426437Y190602D01*
X425735Y189792D01*
X424978Y189035D01*
X424168Y188333D01*
X423310Y187691D01*
X422409Y187112D01*
X421469Y186598D01*
X420494Y186153D01*
X419490Y185779D01*
X418462Y185477D01*
X417415Y185249D01*
X416354Y185096D01*
X415286Y185020D01*
X414214Y185020D01*
X413146Y185096D01*
X412085Y185249D01*
X411038Y185477D01*
X410010Y185779D01*
X409006Y186153D01*
X408031Y186598D01*
X407091Y187112D01*
X406190Y187691D01*
X405332Y188333D01*
X404522Y189035D01*
X403765Y189792D01*
X403063Y190602D01*
X402421Y191460D01*
X401842Y192361D01*
X401328Y193301D01*
X400883Y194276D01*
X400509Y195280D01*
X400207Y196308D01*
X399979Y197355D01*
X399826Y198416D01*
X399750Y199484D01*
X399750Y200556D01*
X399826Y201624D01*
X399979Y202685D01*
X400207Y203732D01*
X400509Y204760D01*
X400883Y205764D01*
X401328Y206739D01*
X401842Y207679D01*
X402421Y208580D01*
X403063Y209438D01*
X403765Y210248D01*
X404522Y211005D01*
X405332Y211707D01*
X406190Y212349D01*
X407091Y212928D01*
X408031Y213442D01*
X409006Y213887D01*
X410010Y214261D01*
X411038Y214563D01*
X412085Y214791D01*
X413146Y214944D01*
X414214Y215020D01*
X415286Y215020D01*
X416354Y214944D01*
X417415Y214791D01*
X418462Y214563D01*
X419490Y214261D01*
X420494Y213887D01*
X421469Y213442D01*
X422409Y212928D01*
X423310Y212349D01*
X424168Y211707D01*
X424978Y211005D01*
X425735Y210248D01*
X426437Y209438D01*
X427079Y208580D01*
X427658Y207679D01*
X428172Y206739D01*
X428617Y205764D01*
X428991Y204760D01*
X429293Y203732D01*
X429521Y202685D01*
X429674Y201624D01*
X429750Y200556D01*
X429750Y199484D01*
M02*
